<svg xmlns="http://www.w3.org/2000/svg" version="1.1" xmlns:xlink="http://www.w3.org/1999/xlink" xmlns:svgjs="http://svgjs.com/svgjs" width="1000" height="1000"><rect width="1000" height="1000" rx="100" ry="100" fill="#555555"></rect><g transform="matrix(2,0,0,2,0,0)"><svg xmlns="http://www.w3.org/2000/svg" version="1.1" xmlns:xlink="http://www.w3.org/1999/xlink" xmlns:svgjs="http://svgjs.com/svgjs" width="500" height="500"><svg xmlns="http://www.w3.org/2000/svg" xmlns:xlink="http://www.w3.org/1999/xlink" width="500" zoomAndPan="magnify" viewBox="0 0 375 374.999991" height="500" preserveAspectRatio="xMidYMid meet" version="1.0"><defs><g></g><clipPath id="id1"><path d="M 49 173.644531 L 337.742188 173.644531 L 337.742188 201.394531 L 49 201.394531 Z M 49 173.644531 " clip-rule="nonzero"></path></clipPath></defs><rect x="-37.5" width="450" fill="#ffffff" y="-37.499999" height="449.999989" fill-opacity="1"></rect><rect x="-37.5" width="450" fill="#ffffff" y="-37.499999" height="449.999989" fill-opacity="1"></rect><rect x="-37.5" width="450" fill="#272727" y="-37.499999" height="449.999989" fill-opacity="1"></rect><g fill="#ece6db" fill-opacity="1"><g transform="translate(92.468518, 238.499984)"><g><path d="M 55.050781 0 C 78.449219 0 90 -15.601562 90 -30.300781 C 90 -49.199219 69.449219 -53.25 58.648438 -53.699219 L 58.648438 -54.300781 C 68.25 -54.898438 82.949219 -60.300781 82.949219 -79.351562 C 82.949219 -91.800781 73.800781 -105.300781 51.601562 -105.300781 L 9.75 -105.300781 L 9.75 0 Z M 24.75 -103.199219 L 45.148438 -103.199219 C 61.5 -103.199219 69 -90 69 -78.300781 C 69 -60 54.898438 -54.898438 47.550781 -54.898438 L 24.75 -54.898438 Z M 24.75 -52.800781 L 47.550781 -52.800781 C 58.050781 -52.800781 75 -48.449219 75 -28.949219 C 75 -16.351562 65.550781 -2.101562 46.949219 -2.101562 L 24.75 -2.101562 Z M 24.75 -52.800781 "></path></g></g></g><g fill="#ece6db" fill-opacity="1"><g transform="translate(188.468535, 238.499984)"><g><path d="M 54.75 0 L 54.75 -103.199219 C 72.898438 -103.199219 79.800781 -100.800781 91.199219 -94.800781 L 91.199219 -105.300781 L 3.449219 -105.300781 L 3.449219 -94.800781 C 14.851562 -100.800781 21 -103.199219 39.75 -103.199219 L 39.75 0 Z M 54.75 0 "></path></g></g></g><g clip-path="url(#id1)"><path fill="#272727" d="M 49.042969 173.644531 L 337.6875 173.644531 L 337.6875 201.394531 L 49.042969 201.394531 L 49.042969 173.644531 " fill-opacity="1" fill-rule="nonzero"></path></g><g fill="#ece6db" fill-opacity="1"><g transform="translate(95.534948, 192.374987)"><g><path d="M 5.871094 0 C 8.367188 0 9.597656 -1.664062 9.597656 -3.230469 C 9.597656 -5.246094 7.40625 -5.679688 6.253906 -5.726562 L 6.253906 -5.792969 C 7.277344 -5.855469 8.847656 -6.429688 8.847656 -8.460938 C 8.847656 -9.789062 7.871094 -11.230469 5.503906 -11.230469 L 1.039062 -11.230469 L 1.039062 0 Z M 2.640625 -11.007812 L 4.816406 -11.007812 C 6.558594 -11.007812 7.359375 -9.597656 7.359375 -8.351562 C 7.359375 -6.398438 5.855469 -5.855469 5.070312 -5.855469 L 2.640625 -5.855469 Z M 2.640625 -5.632812 L 5.070312 -5.632812 C 6.191406 -5.632812 8 -5.167969 8 -3.085938 C 8 -1.742188 6.992188 -0.222656 5.007812 -0.222656 L 2.640625 -0.222656 Z M 2.640625 -5.632812 "></path></g></g></g><g fill="#ece6db" fill-opacity="1"><g transform="translate(107.644485, 192.374987)"><g><path d="M 2.640625 -6.207031 L 8.367188 -6.207031 L 8.367188 -6.429688 L 2.640625 -6.429688 L 2.640625 -11.007812 C 5.679688 -11.007812 7.597656 -10.78125 9.214844 -10.109375 L 9.214844 -11.230469 L 1.039062 -11.230469 L 1.039062 0 L 9.453125 0 L 9.453125 -1.121094 C 7.566406 -0.367188 5.632812 -0.222656 2.640625 -0.222656 Z M 2.640625 -6.207031 "></path></g></g></g><g fill="#ece6db" fill-opacity="1"><g transform="translate(119.929976, 192.374987)"><g><path d="M 8.269531 0 L 8.269531 -1.121094 C 6.6875 -0.414062 5.121094 -0.207031 2.640625 -0.207031 L 2.640625 -11.230469 L 1.039062 -11.230469 L 1.039062 0 Z M 8.269531 0 "></path></g></g></g><g fill="#ece6db" fill-opacity="1"><g transform="translate(130.775824, 192.374987)"><g><path d="M 6.03125 0.273438 C 9.519531 0.273438 11.261719 -2.414062 11.261719 -5.582031 C 11.261719 -8.957031 9.519531 -11.503906 6.03125 -11.503906 C 2.542969 -11.503906 0.800781 -8.957031 0.800781 -5.582031 C 0.800781 -2.414062 2.542969 0.273438 6.03125 0.273438 Z M 6.03125 0.046875 C 3.390625 0.046875 2.398438 -2.785156 2.398438 -5.582031 C 2.398438 -8.367188 3.261719 -11.277344 6.03125 -11.277344 C 8.734375 -11.277344 9.664062 -8.367188 9.664062 -5.582031 C 9.664062 -2.785156 8.734375 0.046875 6.03125 0.046875 Z M 6.03125 0.046875 "></path></g></g></g><g fill="#ece6db" fill-opacity="1"><g transform="translate(144.708919, 192.374987)"><g><path d="M 8.894531 -11.230469 C 8.992188 -9.773438 8.75 -8.160156 8.144531 -6.382812 L 6.0625 -0.304688 L 2.304688 -11.230469 L 0.703125 -11.230469 L 4.558594 0 L 6.160156 0 L 10.015625 -11.230469 Z M 8.894531 -11.230469 "></path></g></g></g><g fill="#ece6db" fill-opacity="1"><g transform="translate(157.314339, 192.374987)"><g><path d="M 2.640625 -6.207031 L 8.367188 -6.207031 L 8.367188 -6.429688 L 2.640625 -6.429688 L 2.640625 -11.007812 C 5.679688 -11.007812 7.597656 -10.78125 9.214844 -10.109375 L 9.214844 -11.230469 L 1.039062 -11.230469 L 1.039062 0 L 9.453125 0 L 9.453125 -1.121094 C 7.566406 -0.367188 5.632812 -0.222656 2.640625 -0.222656 Z M 2.640625 -6.207031 "></path></g></g></g><g fill="#ece6db" fill-opacity="1"><g transform="translate(169.599829, 192.374987)"><g><path d="M 4.785156 0 C 7.582031 0 10.191406 -1.664062 10.191406 -5.824219 C 10.191406 -9.488281 8.238281 -11.230469 5.070312 -11.230469 L 1.039062 -11.230469 L 1.039062 0 Z M 2.640625 -10.992188 L 4.335938 -10.992188 C 7.246094 -11.007812 8.589844 -9.4375 8.589844 -5.824219 C 8.589844 -1.441406 6.800781 -0.238281 4.0625 -0.238281 L 2.640625 -0.238281 Z M 2.640625 -10.992188 "></path></g></g></g><g fill="#ece6db" fill-opacity="1"><g transform="translate(182.461185, 192.374987)"><g></g></g></g><g fill="#ece6db" fill-opacity="1"><g transform="translate(188.012296, 192.374987)"><g><path d="M 5.839844 0 L 5.839844 -11.007812 C 7.773438 -11.007812 8.511719 -10.75 9.726562 -10.109375 L 9.726562 -11.230469 L 0.367188 -11.230469 L 0.367188 -10.109375 C 1.582031 -10.75 2.238281 -11.007812 4.238281 -11.007812 L 4.238281 0 Z M 5.839844 0 "></path></g></g></g><g fill="#ece6db" fill-opacity="1"><g transform="translate(199.913881, 192.374987)"><g><path d="M 8.269531 -6.480469 L 2.640625 -6.480469 L 2.640625 -11.230469 L 1.039062 -11.230469 L 1.039062 0 L 2.640625 0 L 2.640625 -6.238281 L 8.269531 -6.238281 L 8.269531 0 L 9.871094 0 L 9.871094 -11.230469 L 8.269531 -11.230469 Z M 8.269531 -6.480469 "></path></g></g></g><g fill="#ece6db" fill-opacity="1"><g transform="translate(212.695261, 192.374987)"><g><path d="M 6.03125 0.273438 C 9.519531 0.273438 11.261719 -2.414062 11.261719 -5.582031 C 11.261719 -8.957031 9.519531 -11.503906 6.03125 -11.503906 C 2.542969 -11.503906 0.800781 -8.957031 0.800781 -5.582031 C 0.800781 -2.414062 2.542969 0.273438 6.03125 0.273438 Z M 6.03125 0.046875 C 3.390625 0.046875 2.398438 -2.785156 2.398438 -5.582031 C 2.398438 -8.367188 3.261719 -11.277344 6.03125 -11.277344 C 8.734375 -11.277344 9.664062 -8.367188 9.664062 -5.582031 C 9.664062 -2.785156 8.734375 0.046875 6.03125 0.046875 Z M 6.03125 0.046875 "></path></g></g></g><g fill="#ece6db" fill-opacity="1"><g transform="translate(226.628361, 192.374987)"><g><path d="M 7.214844 -4.527344 C 7.023438 -4.925781 6.765625 -5.152344 6.304688 -5.328125 C 8.078125 -5.632812 8.941406 -7.117188 8.941406 -8.460938 C 8.941406 -9.886719 7.917969 -11.230469 5.632812 -11.230469 L 1.039062 -11.230469 L 1.039062 0 L 2.640625 0 L 2.640625 -4.160156 C 3.359375 -4.816406 4.144531 -5.183594 4.625 -5.183594 C 5.023438 -5.183594 5.3125 -4.976562 5.488281 -4.625 L 7.839844 0 L 9.4375 0 Z M 5.328125 -5.519531 C 4.398438 -5.566406 3.441406 -5.054688 2.640625 -4.382812 L 2.640625 -11.007812 L 4.640625 -11.007812 C 6.574219 -11.007812 7.503906 -9.679688 7.503906 -8.191406 C 7.503906 -6.800781 6.703125 -5.457031 5.328125 -5.519531 Z M 5.328125 -5.519531 "></path></g></g></g><g fill="#ece6db" fill-opacity="1"><g transform="translate(238.625934, 192.374987)"><g><path d="M 8.269531 0 L 8.269531 -1.121094 C 6.6875 -0.414062 5.121094 -0.207031 2.640625 -0.207031 L 2.640625 -11.230469 L 1.039062 -11.230469 L 1.039062 0 Z M 8.269531 0 "></path></g></g></g><g fill="#ece6db" fill-opacity="1"><g transform="translate(249.471786, 192.374987)"><g><path d="M 2.078125 0 L 4.0625 -4.960938 L 8.847656 -4.960938 L 9.199219 -4.0625 C 9.789062 -2.558594 9.984375 -1.230469 10.175781 0 L 11.054688 0 L 6.558594 -11.230469 L 4.960938 -11.230469 L 0.480469 0 Z M 6.445312 -10.957031 L 8.75 -5.183594 L 4.144531 -5.183594 Z M 6.445312 -10.957031 "></path></g></g></g><g fill="#ece6db" fill-opacity="1"><g transform="translate(262.877016, 192.374987)"><g><path d="M 1.824219 0 C 1.488281 -1.28125 1.441406 -2.496094 1.441406 -3.792969 L 1.441406 -10.320312 L 8.496094 0 L 9.917969 0 L 9.917969 -7.679688 C 9.917969 -8.796875 10.015625 -10.109375 10.300781 -11.230469 L 9.328125 -11.230469 C 9.613281 -10.109375 9.710938 -8.816406 9.710938 -7.679688 L 9.710938 -0.671875 L 2.464844 -11.230469 L 1.214844 -11.230469 L 1.214844 -3.792969 C 1.214844 -2.382812 1.167969 -1.28125 0.847656 0 Z M 1.824219 0 "></path></g></g></g><g fill="#ece6db" fill-opacity="1"><g transform="translate(275.786363, 192.374987)"><g><path d="M 2.640625 0 L 2.640625 -11.230469 L 1.039062 -11.230469 L 1.039062 0 Z M 2.640625 0 "></path></g></g></g><path stroke-linecap="butt" transform="matrix(1.498287, 0, 0, 1.5, 48.991936, 187.499988)" fill="none" stroke-linejoin="miter" d="M 0.00016807 0.00000820833 L 20.523607 0.00000820833 " stroke="#ece6db" stroke-width="1" stroke-opacity="1" stroke-miterlimit="4"></path><path stroke-linecap="butt" transform="matrix(1.498287, 0, 0, 1.5, 296.491919, 187.499988)" fill="none" stroke-linejoin="miter" d="M 0.000178917 0.00000820833 L 20.523617 0.00000820833 " stroke="#ece6db" stroke-width="1" stroke-opacity="1" stroke-miterlimit="4"></path><g fill="#ece6db" fill-opacity="1"><g transform="translate(149.912492, 283.413233)"><g><path d="M 5.921875 0.15625 C 5.117188 0.15625 4.390625 0.03125 3.734375 -0.21875 C 3.085938 -0.476562 2.535156 -0.851562 2.078125 -1.34375 C 1.617188 -1.832031 1.265625 -2.429688 1.015625 -3.140625 C 0.765625 -3.859375 0.640625 -4.675781 0.640625 -5.59375 C 0.640625 -6.507812 0.765625 -7.328125 1.015625 -8.046875 C 1.265625 -8.765625 1.617188 -9.367188 2.078125 -9.859375 C 2.535156 -10.347656 3.085938 -10.71875 3.734375 -10.96875 C 4.390625 -11.226562 5.117188 -11.359375 5.921875 -11.359375 C 6.722656 -11.359375 7.445312 -11.226562 8.09375 -10.96875 C 8.75 -10.71875 9.304688 -10.347656 9.765625 -9.859375 C 10.222656 -9.367188 10.578125 -8.765625 10.828125 -8.046875 C 11.078125 -7.328125 11.203125 -6.507812 11.203125 -5.59375 C 11.203125 -4.675781 11.078125 -3.859375 10.828125 -3.140625 C 10.578125 -2.429688 10.222656 -1.832031 9.765625 -1.34375 C 9.304688 -0.851562 8.75 -0.476562 8.09375 -0.21875 C 7.445312 0.03125 6.722656 0.15625 5.921875 0.15625 Z M 5.921875 -2 C 6.335938 -2 6.71875 -2.070312 7.0625 -2.21875 C 7.414062 -2.375 7.722656 -2.597656 7.984375 -2.890625 C 8.242188 -3.191406 8.441406 -3.566406 8.578125 -4.015625 C 8.722656 -4.472656 8.796875 -5 8.796875 -5.59375 C 8.796875 -6.195312 8.722656 -6.722656 8.578125 -7.171875 C 8.441406 -7.628906 8.242188 -8.003906 7.984375 -8.296875 C 7.722656 -8.597656 7.414062 -8.820312 7.0625 -8.96875 C 6.71875 -9.125 6.335938 -9.203125 5.921875 -9.203125 C 5.503906 -9.203125 5.117188 -9.125 4.765625 -8.96875 C 4.410156 -8.820312 4.101562 -8.597656 3.84375 -8.296875 C 3.59375 -8.003906 3.394531 -7.628906 3.25 -7.171875 C 3.113281 -6.722656 3.046875 -6.195312 3.046875 -5.59375 C 3.046875 -5 3.113281 -4.472656 3.25 -4.015625 C 3.394531 -3.566406 3.59375 -3.191406 3.84375 -2.890625 C 4.101562 -2.597656 4.410156 -2.375 4.765625 -2.21875 C 5.117188 -2.070312 5.503906 -2 5.921875 -2 Z M 5.921875 -2 "></path></g></g></g><g fill="#ece6db" fill-opacity="1"><g transform="translate(164.949647, 283.413233)"><g><path d="M 1.125 -11.203125 L 4.234375 -11.203125 L 8.484375 -3.515625 L 8.5625 -3.515625 L 8.5625 -11.203125 L 10.953125 -11.203125 L 10.953125 0 L 7.84375 0 L 3.59375 -7.6875 L 3.515625 -7.6875 L 3.515625 0 L 1.125 0 Z M 1.125 -11.203125 "></path></g></g></g><g fill="#ece6db" fill-opacity="1"><g transform="translate(180.226739, 283.413233)"><g><path d="M 1.125 -11.203125 L 3.515625 -11.203125 L 3.515625 -2.15625 L 8.640625 -2.15625 L 8.640625 0 L 1.125 0 Z M 1.125 -11.203125 "></path></g></g></g><g fill="#ece6db" fill-opacity="1"><g transform="translate(192.384583, 283.413233)"><g><path d="M 1.125 -11.203125 L 3.515625 -11.203125 L 3.515625 0 L 1.125 0 Z M 1.125 -11.203125 "></path></g></g></g><g fill="#ece6db" fill-opacity="1"><g transform="translate(200.223462, 283.413233)"><g><path d="M 1.125 -11.203125 L 4.234375 -11.203125 L 8.484375 -3.515625 L 8.5625 -3.515625 L 8.5625 -11.203125 L 10.953125 -11.203125 L 10.953125 0 L 7.84375 0 L 3.59375 -7.6875 L 3.515625 -7.6875 L 3.515625 0 L 1.125 0 Z M 1.125 -11.203125 "></path></g></g></g><g fill="#ece6db" fill-opacity="1"><g transform="translate(215.500557, 283.413233)"><g><path d="M 1.125 -11.203125 L 8.71875 -11.203125 L 8.71875 -9.046875 L 3.515625 -9.046875 L 3.515625 -6.640625 L 8.40625 -6.640625 L 8.40625 -4.640625 L 3.515625 -4.640625 L 3.515625 -2.15625 L 8.875 -2.15625 L 8.875 0 L 1.125 0 Z M 1.125 -11.203125 "></path></g></g></g><g fill="#ece6db" fill-opacity="1"><g transform="translate(87.820871, 312.358602)"><g><path d="M 2.464844 -1.191406 L 2.464844 -11.554688 L 1.273438 -11.554688 L 1.273438 0 L 6.59375 0 L 6.59375 -1.191406 Z M 2.464844 -1.191406 "></path></g></g></g><g fill="#ece6db" fill-opacity="1"><g transform="translate(98.153672, 312.358602)"><g><path d="M 7.222656 -3.738281 C 7.222656 -3.007812 6.96875 -2.363281 6.457031 -1.835938 C 5.949219 -1.292969 5.320312 -1.019531 4.589844 -1.019531 C 3.839844 -1.019531 3.210938 -1.292969 2.703125 -1.835938 C 2.191406 -2.363281 1.953125 -3.007812 1.953125 -3.738281 C 1.953125 -4.453125 2.191406 -5.097656 2.703125 -5.640625 C 3.210938 -6.1875 3.839844 -6.457031 4.589844 -6.457031 C 5.320312 -6.457031 5.949219 -6.1875 6.457031 -5.640625 C 6.96875 -5.097656 7.222656 -4.453125 7.222656 -3.738281 Z M 8.414062 0 L 8.414062 -7.476562 L 7.222656 -7.476562 L 7.222656 -6.1875 C 7.15625 -6.289062 7.070312 -6.375 7 -6.457031 C 6.289062 -7.238281 5.421875 -7.648438 4.402344 -7.648438 C 3.363281 -7.648438 2.5 -7.238281 1.785156 -6.457031 C 1.105469 -5.675781 0.765625 -4.777344 0.765625 -3.738281 C 0.765625 -2.683594 1.105469 -1.785156 1.785156 -1.019531 C 2.5 -0.222656 3.363281 0.171875 4.402344 0.171875 C 5.421875 0.171875 6.289062 -0.222656 7 -1.019531 C 7.070312 -1.085938 7.15625 -1.171875 7.222656 -1.273438 L 7.222656 0 Z M 8.414062 0 "></path></g></g></g><g fill="#ece6db" fill-opacity="1"><g transform="translate(111.2392, 312.358602)"><g><path d="M 8.582031 0.953125 L 12.132812 -7.476562 L 10.808594 -7.476562 L 8.566406 -1.714844 L 6.152344 -7.867188 L 3.738281 -1.714844 L 1.496094 -7.476562 L 0.171875 -7.476562 L 3.757812 0.953125 L 6.152344 -5.082031 Z M 8.582031 0.953125 "></path></g></g></g><g fill="#ece6db" fill-opacity="1"><g transform="translate(126.941523, 312.358602)"><g></g></g></g><g fill="#ece6db" fill-opacity="1"><g transform="translate(134.929407, 312.358602)"><g><path d="M 2.464844 -5.726562 L 2.464844 -10.417969 L 5.148438 -10.417969 C 5.847656 -10.417969 6.40625 -10.195312 6.832031 -9.773438 C 7.238281 -9.332031 7.460938 -8.785156 7.460938 -8.105469 C 7.460938 -7.410156 7.238281 -6.847656 6.796875 -6.390625 C 6.355469 -5.949219 5.8125 -5.726562 5.148438 -5.726562 Z M 8.652344 -8.074219 C 8.652344 -9.09375 8.277344 -9.925781 7.5625 -10.585938 C 6.847656 -11.234375 6 -11.554688 4.980469 -11.554688 L 1.273438 -11.554688 L 1.273438 0 L 2.464844 0 L 2.464844 -4.570312 L 4.980469 -4.570312 C 6 -4.570312 6.867188 -4.894531 7.5625 -5.539062 C 8.277344 -6.21875 8.652344 -7.054688 8.652344 -8.074219 Z M 8.652344 -8.074219 "></path></g></g></g><g fill="#ece6db" fill-opacity="1"><g transform="translate(147.318265, 312.358602)"><g><path d="M 7.222656 -3.738281 C 7.222656 -3.007812 6.96875 -2.363281 6.457031 -1.835938 C 5.949219 -1.292969 5.320312 -1.019531 4.589844 -1.019531 C 3.839844 -1.019531 3.210938 -1.292969 2.703125 -1.835938 C 2.191406 -2.363281 1.953125 -3.007812 1.953125 -3.738281 C 1.953125 -4.453125 2.191406 -5.097656 2.703125 -5.640625 C 3.210938 -6.1875 3.839844 -6.457031 4.589844 -6.457031 C 5.320312 -6.457031 5.949219 -6.1875 6.457031 -5.640625 C 6.96875 -5.097656 7.222656 -4.453125 7.222656 -3.738281 Z M 8.414062 0 L 8.414062 -7.476562 L 7.222656 -7.476562 L 7.222656 -6.1875 C 7.15625 -6.289062 7.070312 -6.375 7 -6.457031 C 6.289062 -7.238281 5.421875 -7.648438 4.402344 -7.648438 C 3.363281 -7.648438 2.5 -7.238281 1.785156 -6.457031 C 1.105469 -5.675781 0.765625 -4.777344 0.765625 -3.738281 C 0.765625 -2.683594 1.105469 -1.785156 1.785156 -1.019531 C 2.5 -0.222656 3.363281 0.171875 4.402344 0.171875 C 5.421875 0.171875 6.289062 -0.222656 7 -1.019531 C 7.070312 -1.085938 7.15625 -1.171875 7.222656 -1.273438 L 7.222656 0 Z M 8.414062 0 "></path></g></g></g><g fill="#ece6db" fill-opacity="1"><g transform="translate(160.403793, 312.358602)"><g><path d="M 2.34375 -1.054688 C 2.054688 -1.257812 1.835938 -1.597656 1.714844 -2.089844 L 0.457031 -2.089844 C 0.714844 -0.542969 1.699219 0.222656 3.433594 0.222656 C 3.839844 0.222656 4.214844 0.1875 4.570312 0.0859375 C 4.929688 -0.015625 5.234375 -0.152344 5.523438 -0.339844 C 6.101562 -0.730469 6.390625 -1.324219 6.390625 -2.125 C 6.390625 -2.941406 6.015625 -3.519531 5.234375 -3.890625 C 4.910156 -4.042969 4.554688 -4.164062 4.164062 -4.25 C 3.789062 -4.332031 3.433594 -4.4375 3.109375 -4.539062 C 2.769531 -4.640625 2.5 -4.777344 2.277344 -4.929688 C 2.054688 -5.082031 1.9375 -5.320312 1.9375 -5.660156 C 1.9375 -6 2.074219 -6.253906 2.34375 -6.40625 C 2.617188 -6.578125 2.941406 -6.660156 3.296875 -6.660156 C 3.671875 -6.660156 3.992188 -6.578125 4.25 -6.441406 C 4.503906 -6.304688 4.707031 -6.035156 4.828125 -5.625 L 6.101562 -5.625 C 5.949219 -6.375 5.625 -6.898438 5.148438 -7.1875 C 4.65625 -7.496094 4.0625 -7.648438 3.332031 -7.648438 C 2.617188 -7.648438 1.988281 -7.445312 1.460938 -7.070312 C 0.953125 -6.679688 0.679688 -6.117188 0.679688 -5.371094 C 0.679688 -5.011719 0.78125 -4.691406 0.96875 -4.417969 C 1.171875 -4.128906 1.460938 -3.910156 1.835938 -3.738281 C 2.175781 -3.585938 2.53125 -3.46875 2.90625 -3.363281 C 3.28125 -3.28125 3.636719 -3.179688 3.976562 -3.074219 C 4.742188 -2.820312 5.132812 -2.449219 5.132812 -1.972656 C 5.132812 -1.15625 4.589844 -0.765625 3.5 -0.765625 C 3.042969 -0.765625 2.652344 -0.851562 2.34375 -1.054688 Z M 2.34375 -1.054688 "></path></g></g></g><g fill="#ece6db" fill-opacity="1"><g transform="translate(170.634639, 312.358602)"><g><path d="M 0.339844 -6.375 L 2.210938 -6.375 L 2.210938 0 L 3.398438 0 L 3.398438 -6.375 L 5.25 -6.375 L 5.25 -7.476562 L 3.398438 -7.476562 L 3.398438 -10.382812 L 2.210938 -10.382812 L 2.210938 -7.476562 L 0.339844 -7.476562 Z M 0.339844 -6.375 "></path></g></g></g><g fill="#ece6db" fill-opacity="1"><g transform="translate(179.62506, 312.358602)"><g></g></g></g><g fill="#ece6db" fill-opacity="1"><g transform="translate(187.612944, 312.358602)"><g><path d="M 12.644531 -5.761719 C 12.644531 -6.578125 12.472656 -7.34375 12.167969 -8.074219 C 11.863281 -8.785156 11.4375 -9.414062 10.894531 -9.960938 C 10.351562 -10.503906 9.722656 -10.929688 9.007812 -11.234375 C 8.277344 -11.539062 7.511719 -11.710938 6.695312 -11.710938 C 5.878906 -11.710938 5.097656 -11.539062 4.382812 -11.234375 C 3.671875 -10.929688 3.042969 -10.503906 2.5 -9.960938 C 1.953125 -9.414062 1.53125 -8.785156 1.222656 -8.074219 C 0.917969 -7.34375 0.765625 -6.578125 0.765625 -5.761719 C 0.765625 -4.945312 0.917969 -4.164062 1.222656 -3.449219 C 1.53125 -2.734375 1.953125 -2.105469 2.5 -1.5625 C 3.042969 -1.019531 3.671875 -0.59375 4.382812 -0.289062 C 5.097656 0.015625 5.878906 0.171875 6.695312 0.171875 C 7.171875 0.171875 7.648438 0.117188 8.105469 0 L 12.8125 0 L 12.8125 -0.96875 L 11.082031 -0.96875 C 10.65625 -0.867188 10.214844 -0.765625 9.738281 -0.664062 C 10.164062 -0.917969 10.554688 -1.222656 10.894531 -1.5625 C 11.4375 -2.105469 11.863281 -2.734375 12.167969 -3.449219 C 12.472656 -4.164062 12.644531 -4.945312 12.644531 -5.761719 Z M 11.453125 -5.761719 C 11.453125 -4.453125 10.980469 -3.332031 10.0625 -2.414062 C 9.125 -1.480469 8.003906 -1.019531 6.695312 -1.019531 C 5.386719 -1.019531 4.265625 -1.480469 3.347656 -2.414062 C 2.414062 -3.332031 1.953125 -4.453125 1.953125 -5.761719 C 1.953125 -7.070312 2.414062 -8.191406 3.347656 -9.125 C 4.265625 -10.042969 5.386719 -10.519531 6.695312 -10.519531 C 8.003906 -10.519531 9.125 -10.042969 10.0625 -9.125 C 10.980469 -8.191406 11.453125 -7.070312 11.453125 -5.761719 Z M 11.453125 -5.761719 "></path></g></g></g><g fill="#ece6db" fill-opacity="1"><g transform="translate(204.334798, 312.358602)"><g><path d="M 6.441406 -1.273438 L 6.441406 0 L 7.628906 0 L 7.628906 -7.476562 L 6.441406 -7.476562 L 6.441406 -4.351562 C 6.441406 -3.296875 6.238281 -2.5 5.847656 -1.902344 C 5.472656 -1.324219 4.808594 -1.035156 3.890625 -1.035156 C 3.382812 -1.035156 3.007812 -1.207031 2.789062 -1.546875 C 2.566406 -1.886719 2.464844 -2.3125 2.464844 -2.804688 L 2.464844 -7.476562 L 1.273438 -7.476562 L 1.273438 -2.804688 C 1.273438 -1.9375 1.496094 -1.222656 1.972656 -0.664062 C 2.449219 -0.117188 3.09375 0.152344 3.941406 0.152344 C 5.046875 0.152344 5.878906 -0.324219 6.441406 -1.273438 Z M 6.441406 -1.273438 "></path></g></g></g><g fill="#ece6db" fill-opacity="1"><g transform="translate(216.383812, 312.358602)"><g><path d="M 8.582031 -3.910156 C 8.582031 -4.929688 8.175781 -5.8125 7.394531 -6.578125 C 6.628906 -7.308594 5.710938 -7.683594 4.671875 -7.683594 C 3.585938 -7.683594 2.667969 -7.289062 1.902344 -6.527344 C 1.136719 -5.761719 0.765625 -4.84375 0.765625 -3.773438 C 0.765625 -2.683594 1.136719 -1.765625 1.902344 -1.019531 C 2.261719 -0.664062 2.667969 -0.390625 3.144531 -0.1875 C 3.621094 0.015625 4.179688 0.117188 4.84375 0.117188 C 5.507812 0.117188 6.152344 -0.0859375 6.796875 -0.492188 C 7.445312 -0.902344 7.917969 -1.480469 8.242188 -2.191406 L 6.882812 -2.191406 C 6.609375 -1.835938 6.289062 -1.5625 5.898438 -1.359375 C 5.507812 -1.15625 5.097656 -1.070312 4.671875 -1.070312 C 4.027344 -1.070312 3.449219 -1.273438 2.941406 -1.699219 C 2.429688 -2.105469 2.105469 -2.632812 2.003906 -3.28125 L 8.582031 -3.28125 Z M 7.324219 -4.300781 L 2.023438 -4.300781 C 2.089844 -4.605469 2.210938 -4.894531 2.378906 -5.167969 C 2.921875 -6.050781 3.6875 -6.492188 4.671875 -6.492188 C 5.300781 -6.492188 5.863281 -6.289062 6.355469 -5.878906 C 6.867188 -5.457031 7.171875 -4.929688 7.324219 -4.300781 Z M 7.324219 -4.300781 "></path></g></g></g><g fill="#ece6db" fill-opacity="1"><g transform="translate(229.044536, 312.358602)"><g><path d="M 2.34375 -1.054688 C 2.054688 -1.257812 1.835938 -1.597656 1.714844 -2.089844 L 0.457031 -2.089844 C 0.714844 -0.542969 1.699219 0.222656 3.433594 0.222656 C 3.839844 0.222656 4.214844 0.1875 4.570312 0.0859375 C 4.929688 -0.015625 5.234375 -0.152344 5.523438 -0.339844 C 6.101562 -0.730469 6.390625 -1.324219 6.390625 -2.125 C 6.390625 -2.941406 6.015625 -3.519531 5.234375 -3.890625 C 4.910156 -4.042969 4.554688 -4.164062 4.164062 -4.25 C 3.789062 -4.332031 3.433594 -4.4375 3.109375 -4.539062 C 2.769531 -4.640625 2.5 -4.777344 2.277344 -4.929688 C 2.054688 -5.082031 1.9375 -5.320312 1.9375 -5.660156 C 1.9375 -6 2.074219 -6.253906 2.34375 -6.40625 C 2.617188 -6.578125 2.941406 -6.660156 3.296875 -6.660156 C 3.671875 -6.660156 3.992188 -6.578125 4.25 -6.441406 C 4.503906 -6.304688 4.707031 -6.035156 4.828125 -5.625 L 6.101562 -5.625 C 5.949219 -6.375 5.625 -6.898438 5.148438 -7.1875 C 4.65625 -7.496094 4.0625 -7.648438 3.332031 -7.648438 C 2.617188 -7.648438 1.988281 -7.445312 1.460938 -7.070312 C 0.953125 -6.679688 0.679688 -6.117188 0.679688 -5.371094 C 0.679688 -5.011719 0.78125 -4.691406 0.96875 -4.417969 C 1.171875 -4.128906 1.460938 -3.910156 1.835938 -3.738281 C 2.175781 -3.585938 2.53125 -3.46875 2.90625 -3.363281 C 3.28125 -3.28125 3.636719 -3.179688 3.976562 -3.074219 C 4.742188 -2.820312 5.132812 -2.449219 5.132812 -1.972656 C 5.132812 -1.15625 4.589844 -0.765625 3.5 -0.765625 C 3.042969 -0.765625 2.652344 -0.851562 2.34375 -1.054688 Z M 2.34375 -1.054688 "></path></g></g></g><g fill="#ece6db" fill-opacity="1"><g transform="translate(239.275381, 312.358602)"><g><path d="M 0.339844 -6.375 L 2.210938 -6.375 L 2.210938 0 L 3.398438 0 L 3.398438 -6.375 L 5.25 -6.375 L 5.25 -7.476562 L 3.398438 -7.476562 L 3.398438 -10.382812 L 2.210938 -10.382812 L 2.210938 -7.476562 L 0.339844 -7.476562 Z M 0.339844 -6.375 "></path></g></g></g><g fill="#ece6db" fill-opacity="1"><g transform="translate(248.265802, 312.358602)"><g><path d="M 2.480469 -10.0625 C 2.328125 -10.195312 2.140625 -10.28125 1.9375 -10.28125 C 1.734375 -10.28125 1.546875 -10.195312 1.410156 -10.0625 C 1.257812 -9.90625 1.191406 -9.722656 1.191406 -9.515625 C 1.191406 -9.3125 1.257812 -9.125 1.410156 -8.992188 C 1.546875 -8.835938 1.734375 -8.769531 1.9375 -8.769531 C 2.140625 -8.769531 2.328125 -8.835938 2.480469 -8.992188 C 2.617188 -9.125 2.703125 -9.3125 2.703125 -9.515625 C 2.703125 -9.722656 2.617188 -9.90625 2.480469 -10.0625 Z M 2.550781 0 L 2.550781 -7.476562 L 1.359375 -7.476562 L 1.359375 0 Z M 2.550781 0 "></path></g></g></g><g fill="#ece6db" fill-opacity="1"><g transform="translate(255.557004, 312.358602)"><g><path d="M 7.394531 -3.773438 C 7.394531 -3.023438 7.121094 -2.394531 6.59375 -1.871094 C 6.050781 -1.324219 5.421875 -1.070312 4.671875 -1.070312 C 3.925781 -1.070312 3.28125 -1.324219 2.753906 -1.871094 C 2.210938 -2.394531 1.953125 -3.023438 1.953125 -3.773438 C 1.953125 -4.519531 2.210938 -5.148438 2.753906 -5.691406 C 3.28125 -6.21875 3.925781 -6.492188 4.671875 -6.492188 C 5.421875 -6.492188 6.050781 -6.21875 6.59375 -5.691406 C 7.121094 -5.148438 7.394531 -4.519531 7.394531 -3.773438 Z M 8.582031 -3.773438 C 8.582031 -4.84375 8.191406 -5.761719 7.425781 -6.527344 C 6.660156 -7.289062 5.746094 -7.683594 4.671875 -7.683594 C 3.585938 -7.683594 2.667969 -7.289062 1.902344 -6.527344 C 1.136719 -5.761719 0.765625 -4.84375 0.765625 -3.773438 C 0.765625 -2.683594 1.136719 -1.765625 1.902344 -1.019531 C 2.667969 -0.253906 3.601562 0.117188 4.671875 0.117188 C 5.726562 0.117188 6.660156 -0.253906 7.425781 -1.019531 C 8.191406 -1.765625 8.582031 -2.683594 8.582031 -3.773438 Z M 8.582031 -3.773438 "></path></g></g></g><g fill="#ece6db" fill-opacity="1"><g transform="translate(268.302689, 312.358602)"><g><path d="M 6.441406 0 L 7.628906 0 L 7.628906 -4.671875 C 7.628906 -5.539062 7.394531 -6.238281 6.949219 -6.765625 C 6.714844 -7.035156 6.441406 -7.238281 6.117188 -7.394531 C 5.777344 -7.546875 5.351562 -7.628906 4.828125 -7.628906 C 4.28125 -7.628906 3.824219 -7.476562 3.414062 -7.207031 C 3.023438 -6.949219 2.703125 -6.609375 2.464844 -6.1875 L 2.464844 -7.476562 L 1.273438 -7.476562 L 1.273438 0 L 2.464844 0 L 2.464844 -3.128906 C 2.464844 -4.078125 2.632812 -4.828125 2.992188 -5.386719 C 3.195312 -5.691406 3.449219 -5.949219 3.773438 -6.152344 C 4.078125 -6.339844 4.503906 -6.441406 5.011719 -6.441406 C 5.523438 -6.441406 5.878906 -6.253906 6.101562 -5.914062 C 6.320312 -5.574219 6.441406 -5.148438 6.441406 -4.671875 Z M 6.441406 0 "></path></g></g></g><g fill="#ece6db" fill-opacity="1"><g transform="translate(280.351703, 312.358602)"><g><path d="M 2.34375 -1.054688 C 2.054688 -1.257812 1.835938 -1.597656 1.714844 -2.089844 L 0.457031 -2.089844 C 0.714844 -0.542969 1.699219 0.222656 3.433594 0.222656 C 3.839844 0.222656 4.214844 0.1875 4.570312 0.0859375 C 4.929688 -0.015625 5.234375 -0.152344 5.523438 -0.339844 C 6.101562 -0.730469 6.390625 -1.324219 6.390625 -2.125 C 6.390625 -2.941406 6.015625 -3.519531 5.234375 -3.890625 C 4.910156 -4.042969 4.554688 -4.164062 4.164062 -4.25 C 3.789062 -4.332031 3.433594 -4.4375 3.109375 -4.539062 C 2.769531 -4.640625 2.5 -4.777344 2.277344 -4.929688 C 2.054688 -5.082031 1.9375 -5.320312 1.9375 -5.660156 C 1.9375 -6 2.074219 -6.253906 2.34375 -6.40625 C 2.617188 -6.578125 2.941406 -6.660156 3.296875 -6.660156 C 3.671875 -6.660156 3.992188 -6.578125 4.25 -6.441406 C 4.503906 -6.304688 4.707031 -6.035156 4.828125 -5.625 L 6.101562 -5.625 C 5.949219 -6.375 5.625 -6.898438 5.148438 -7.1875 C 4.65625 -7.496094 4.0625 -7.648438 3.332031 -7.648438 C 2.617188 -7.648438 1.988281 -7.445312 1.460938 -7.070312 C 0.953125 -6.679688 0.679688 -6.117188 0.679688 -5.371094 C 0.679688 -5.011719 0.78125 -4.691406 0.96875 -4.417969 C 1.171875 -4.128906 1.460938 -3.910156 1.835938 -3.738281 C 2.175781 -3.585938 2.53125 -3.46875 2.90625 -3.363281 C 3.28125 -3.28125 3.636719 -3.179688 3.976562 -3.074219 C 4.742188 -2.820312 5.132812 -2.449219 5.132812 -1.972656 C 5.132812 -1.15625 4.589844 -0.765625 3.5 -0.765625 C 3.042969 -0.765625 2.652344 -0.851562 2.34375 -1.054688 Z M 2.34375 -1.054688 "></path></g></g></g></svg></svg></g></svg>